<svg xmlns="http://www.w3.org/2000/svg" width="40" height="40">
  <g fill="none">
    <path
      fill="#7BC9CD"
      d="M23.622 7.38s-6.524 4.331-7.836 10.543c0 0-3.12-7.996 2.535-16.828.003 0 3.073-4.938 5.301 6.284z"
    />
    <path
      fill="#2C96D3"
      d="M13.647 8.514s-1.55 7.682 1.907 13.003c0 0-7.853-3.447-10.096-13.695.004 0-1.315-5.667 8.19.692z"
    />
    <path
      fill="#B068A7"
      d="M7.394 16.378s4.328 6.53 10.535 7.843c0 0-7.99 3.122-16.813-2.537 0 0-4.934-3.076 6.278-5.306z"
    />
    <path
      fill="#D9418C"
      d="M8.528 26.362s7.675 1.552 12.99-1.909c0 0-3.443 7.861-13.682 10.105.004-.003-5.661 1.317.692-8.196z"
    />
    <path
      fill="#C20E0F"
      d="M16.385 32.62s6.524-4.331 7.836-10.543c0 0 3.12 7.996-2.535 16.828 0 0-3.073 4.938-5.301-6.284z"
    />
    <path
      fill="#F18F00"
      d="M26.36 31.486s1.55-7.682-1.907-13.003c0 0 7.854 3.447 10.096 13.695-.004 0 1.316 5.667-8.189-.692z"
    />
    <path
      fill="#F8D500"
      d="M32.613 23.622s-4.328-6.53-10.535-7.843c0 0 7.99-3.122 16.813 2.537 0 .003 4.934 3.076-6.278 5.306z"
    />
    <path
      fill="#D2D500"
      d="M31.48 13.638s-7.673-1.552-12.992 1.909c0 0 3.444-7.861 13.683-10.105 0 .003 5.661-1.317-.691 8.196z"
    />
  </g>
</svg>
